<?xml version="1.0" standalone="no"?>
<!DOCTYPE svg PUBLIC "-//W3C//DTD SVG 20010904//EN"
 "http://www.w3.org/TR/2001/REC-SVG-20010904/DTD/svg10.dtd">
<svg version="1.0" xmlns="http://www.w3.org/2000/svg"
 width="90.000000pt" height="90.000000pt" viewBox="0 0 90.000000 90.000000"
 preserveAspectRatio="xMidYMid meet">
<metadata>
Created by potrace 1.11, written by Peter Selinger 2001-2013
</metadata>
<g transform="translate(0.000000,90.000000) scale(0.100000,-0.100000)"
fill="#000000" stroke="none">
<path d="M187 753 c4 -10 13 -28 21 -40 8 -13 11 -23 7 -23 -3 0 1 -7 9 -16 9
-8 14 -20 11 -25 -4 -5 -2 -9 3 -9 5 0 17 -16 27 -36 l17 -36 24 23 c26 25 31
34 12 23 -7 -4 -3 4 10 18 12 13 22 30 22 36 0 7 3 12 8 12 6 0 42 72 42 85 0
3 -49 5 -110 5 -100 0 -109 -2 -103 -17z"/>
<path d="M490 761 c0 -5 7 -16 15 -24 8 -8 11 -17 8 -21 -4 -3 -2 -6 4 -6 6 0
16 -13 23 -30 7 -16 16 -30 21 -30 5 0 9 -7 9 -15 0 -8 4 -15 9 -15 5 0 14
-14 21 -30 l13 -31 19 21 c10 11 16 25 13 30 -3 6 -1 10 4 10 6 0 10 3 9 8 -1
4 6 22 15 40 10 18 15 37 12 41 -3 5 -1 11 4 13 5 1 11 12 13 23 3 19 -3 20
-104 23 -65 2 -108 -1 -108 -7z"/>
<path d="M430 740 c0 -5 -24 -50 -54 -100 -30 -49 -51 -92 -48 -94 4 -2 25 -3
47 -2 22 1 48 -2 58 -6 9 -5 17 -5 17 0 0 4 29 7 65 6 69 -1 77 6 50 41 -49
63 -104 145 -98 145 10 0 -19 20 -29 20 -5 0 -8 -4 -8 -10z"/>
<path d="M742 732 c-7 -2 -10 -8 -6 -13 3 -5 0 -9 -5 -9 -6 0 -11 -6 -11 -13
0 -8 -6 -27 -14 -43 -41 -82 -48 -111 -30 -118 8 -3 14 -2 14 2 0 4 39 7 87 7
51 0 89 4 89 10 3 18 -112 181 -124 177z"/>
<path d="M112 700 c-12 -16 -22 -33 -22 -39 0 -5 -4 -11 -8 -13 -8 -3 -72 -93
-72 -101 0 -3 49 -4 110 -4 68 1 110 -2 111 -8 0 -5 5 0 12 13 7 16 8 26 0 30
-6 4 -13 17 -17 30 -4 12 -11 22 -16 22 -8 0 -23 38 -21 53 1 4 -3 7 -8 7 -5
0 -11 9 -14 20 -7 29 -30 25 -55 -10z"/>
<path d="M110 513 c0 -5 -19 -8 -42 -7 -24 1 -46 0 -50 -2 -6 -4 87 -104 96
-104 1 0 37 -34 79 -75 43 -41 82 -75 87 -75 6 0 10 -4 10 -8 0 -5 24 -29 54
-55 l54 -47 -10 38 c-6 20 -13 42 -16 47 -4 6 -5 18 -4 28 2 9 -1 17 -7 17 -7
0 -18 30 -26 70 -2 14 -40 107 -47 116 -4 6 -5 14 -2 17 14 13 -25 37 -55 33
-18 -2 -31 1 -31 8 0 7 -3 7 -8 1 -8 -12 -52 -12 -70 -1 -6 4 -12 3 -12 -1z"/>
<path d="M330 512 c0 -7 -4 -11 -9 -8 -9 6 -9 -7 2 -34 30 -79 45 -129 40
-134 -4 -3 -2 -6 4 -6 9 0 28 -54 24 -72 0 -5 4 -8 10 -8 5 0 8 -4 4 -9 -3 -5
2 -17 11 -25 8 -9 13 -16 10 -16 -3 0 0 -14 6 -31 l11 -32 13 24 c7 13 16 24
21 24 4 0 7 3 6 7 -3 8 60 171 98 255 21 46 24 67 9 58 -5 -3 -10 0 -10 7 0 8
-3 9 -8 3 -4 -6 -55 -10 -117 -10 -62 0 -113 4 -117 10 -5 6 -8 5 -8 -3z"/>
<path d="M620 458 c-11 -25 -20 -51 -20 -57 0 -6 -5 -11 -12 -11 -6 0 -9 -3
-6 -6 4 -3 0 -17 -7 -31 -8 -15 -12 -30 -10 -34 3 -4 -2 -12 -10 -19 -8 -7
-15 -21 -15 -31 0 -11 -4 -19 -10 -19 -5 0 -10 -11 -10 -25 0 -14 -6 -25 -13
-25 -7 0 -13 -10 -13 -23 0 -13 6 -24 13 -24 6 0 10 4 7 8 -2 4 5 10 16 14 11
4 18 11 15 16 -4 5 -1 9 5 9 12 0 47 31 193 173 56 53 105 97 109 97 4 0 8 8
8 19 0 17 -9 19 -110 18 l-109 -1 -21 -48z"/>
</g>
</svg>
